<svg version="1.0" xmlns="http://www.w3.org/2000/svg" width="800" height="800" viewBox="0 0 64 64" xml:space="preserve"><g fill="#231F20"><path d="M20.161 2.273A31.88 31.88 0 0 0 9.375 9.378c-.185.184-.357.377-.537.564a65.591 65.591 0 0 0 5.242 11.133 31.91 31.91 0 0 0 6.081-18.802zM63.824 28.682c-9.751-1.521-20.067 1.469-27.58 8.981a32.197 32.197 0 0 0-3.258 3.812A65.592 65.592 0 0 0 57.007 51.97c5.391-6.737 7.664-15.143 6.817-23.288zM27.05 63.616c9.75 1.519 20.067-1.471 27.58-8.983.308-.308.602-.624.894-.94a67.53 67.53 0 0 1-23.659-10.562 31.972 31.972 0 0 0-4.815 20.485zM12.771 22.754a67.495 67.495 0 0 1-5.435-11.13A31.891 31.891 0 0 0 .004 32.04a31.91 31.91 0 0 0 10.785-7.105 32.668 32.668 0 0 0 1.982-2.181zM13.881 24.53c-.535.62-1.09 1.231-1.678 1.819A33.874 33.874 0 0 1 .082 34.147a31.863 31.863 0 0 0 9.293 20.485c.027.028.057.054.085.082a67.57 67.57 0 0 1 10.528-22.188 67.84 67.84 0 0 1-6.107-7.996z"/><path d="M30.236 41.961a68.45 68.45 0 0 1-7.427-6.42c-.493-.493-.958-1.003-1.433-1.507a65.563 65.563 0 0 0-10.258 22.207 31.791 31.791 0 0 0 13.886 6.984 33.989 33.989 0 0 1 5.232-21.264zM22.583 32.401c.54.579 1.076 1.161 1.641 1.726a66.739 66.739 0 0 0 7.14 6.18 34.118 34.118 0 0 1 3.467-4.058c7.829-7.829 18.525-11.037 28.708-9.635a31.835 31.835 0 0 0-8.761-17.08 65.708 65.708 0 0 0-26.311 16.107 66.455 66.455 0 0 0-5.884 6.76z"/><path d="M15.215 22.892a65.739 65.739 0 0 0 6.007 8.002 68.455 68.455 0 0 1 5.831-6.666A67.686 67.686 0 0 1 53.116 7.971C44.428.325 32.593-1.809 22.143 1.566c.164 7.507-2.145 15.054-6.928 21.326z"/></g></svg>