<svg height="800" width="800" xmlns="http://www.w3.org/2000/svg" viewBox="0 0 512 512" xml:space="preserve"><path d="m466.592 261.096 25.482-25.482-25.103-25.103-25.482 25.482v-58.621c26.55-7.708 46.02-32.235 46.02-61.238V63.869h-127.54v52.265c0 29.003 19.47 53.528 46.02 61.238v58.622l-25.482-25.482-25.103 25.103 25.482 25.482H273.75v-24.3l50.585-50.586-25.103-25.103-25.482 25.482v-50.307c26.55-7.71 46.02-32.235 46.02-61.238V22.78H192.231v52.265c0 29.003 19.47 53.528 46.02 61.238v50.307l-25.482-25.482-25.103 25.103 50.585 50.586v24.3H131.114l25.482-25.482-25.103-25.103-25.482 25.482v-58.622c26.551-7.708 46.02-32.235 46.02-61.238V63.869H24.491v52.265c0 29.003 19.47 53.528 46.02 61.238v58.621l-25.482-25.482-25.103 25.103 25.482 25.482H0L11.983 401.64c1.913 24.48 19.396 44.549 42.189 50.744v36.837h35.501v-34.844h332.655v34.844h35.501v-36.837c22.793-6.195 40.276-26.263 42.189-50.744L512 261.096h-45.408zM395.47 116.134V99.37h56.539v16.765c0 15.587-12.681 28.269-28.269 28.269s-28.27-12.681-28.27-28.27zM227.731 75.046V58.281h56.537v16.765c0 15.587-12.681 28.269-28.269 28.269s-28.268-12.682-28.268-28.269zM59.992 116.134V99.37h56.539v16.765c0 15.587-12.682 28.269-28.269 28.269-15.588-.001-28.27-12.681-28.27-28.27zm404.646 282.565-.012.147c-.864 11.232-10.366 20.031-21.632 20.031H69.005c-11.266 0-20.767-8.798-21.632-20.031l-8.717-102.249h434.687l-8.705 102.102z"/><circle cx="380.248" cy="357.742" r="17.75"/><circle cx="131.743" cy="357.742" r="17.75"/><circle cx="255.996" cy="357.742" r="17.75"/></svg>